# xmcd CD database file generated by Grip 2.96
# 
# Track frame offsets:
#       150
#       12277
#       23023
#       38519
#       57913
#       70506
#       79723
#       95464
#       105999
#       127541
#       136150
#       145407
#       166058
#       183673
#       197007
# 
# Disc length: 2816 seconds
# 
# Revision: 0
# Processed by: cddbd v1.4b42PL1 Copyright (c) Steve Scherf et al.
# Submitted via: Grip 2.96
# 
DISCID=b00afe0f
DTITLE=SKARA BRAE - SKARA BRAE
DYEAR=1900
DGENRE=
TTITLE0=An Cailin  Rua
TTITLE1=Suantrai Hiudai
TTITLE2=Banchnoic Eireann O
TTITLE3=Angela
TTITLE4=Taim Breoite go Leor
TTITLE5=Inis Dhun Ramha
TTITLE6=An Saighdiuir Treigthe
TTITLE7=Cad e sin don te sin
TTITLE8=An Chrubach
TTITLE9=Casadh an tSugain
TTITLE10=Caitlin Og
TTITLE11=Airdi Cuan
TTITLE12=Ta me 'mo Shui
TTITLE13=An Buinnean Bui
TTITLE14=Caitlin Tiriall
EXTD=
EXTT0=
EXTT1=
EXTT2=
EXTT3=
EXTT4=
EXTT5=
EXTT6=
EXTT7=
EXTT8=
EXTT9=
EXTT10=
EXTT11=
EXTT12=
EXTT13=
EXTT14=
PLAYORDER=
